<?xml version="1.0" encoding="UTF-8" standalone="no"?>
<!DOCTYPE svg PUBLIC "-//W3C//DTD SVG 1.1//EN" "http://www.w3.org/Graphics/SVG/1.1/DTD/svg11.dtd">
<svg width="100%" height="100%" viewBox="0 0 2000 2000" version="1.1" xmlns="http://www.w3.org/2000/svg" xmlns:xlink="http://www.w3.org/1999/xlink" xml:space="preserve" xmlns:serif="http://www.serif.com/" style="fill-rule:evenodd;clip-rule:evenodd;stroke-linejoin:round;stroke-miterlimit:2;">
    <g transform="matrix(1.00378,0,0,1.00378,37.1704,-30.128)">
        <g transform="matrix(11.3611,0,0,11.3611,-3700.53,-82.7803)">
            <g transform="matrix(1,0,0,1,441.496,94.0456)">
                <path d="M0,75.678C0,80.21 -16.745,83.884 -37.401,83.884C-58.058,83.884 -74.803,80.21 -74.803,75.678L-74.803,-8.206L0,-8.206L0,75.678Z" style="fill:rgb(149,0,5);"/>
            </g>
            <g transform="matrix(1,0,0,1,441.496,99.3507)">
                <path d="M0,51.211C-9.461,51.211 -15.415,44.331 -17.934,35.525C-18.835,32.376 -19.286,28.982 -19.286,25.606C-19.286,22.23 -18.835,18.835 -17.934,15.686C-15.415,6.88 -9.46,0 0,0L0,8.171C-5.132,8.171 -8.517,12.447 -10.083,17.92C-10.771,20.324 -11.116,22.956 -11.116,25.606C-11.116,28.255 -10.771,30.887 -10.083,33.291C-8.517,38.764 -5.132,43.04 0,43.041L0,51.211ZM0,0C9.461,0 15.415,6.88 17.934,15.686C18.835,18.835 19.285,22.23 19.285,25.606C19.285,28.982 18.835,32.376 17.934,35.525C15.415,44.331 9.461,51.211 0,51.211L0,43.041C5.132,43.041 8.517,38.764 10.083,33.291C10.771,30.887 11.116,28.255 11.116,25.606C11.116,22.956 10.771,20.324 10.083,17.92C8.517,12.447 5.132,8.171 0,8.171L0,0Z" style="fill:rgb(210,48,0);fill-rule:nonzero;"/>
            </g>
            <g transform="matrix(1,0,0,1,441.496,150.562)">
                <path d="M0,-51.211C0.818,-51.211 1.61,-51.158 2.376,-51.059L2.376,-42.711C1.631,-42.926 0.839,-43.041 0,-43.041C-5.132,-43.041 -8.517,-38.764 -10.084,-33.291C-10.771,-30.887 -11.116,-28.255 -11.116,-25.606C-11.116,-22.956 -10.771,-20.325 -10.084,-17.92C-8.517,-12.447 -5.132,-8.171 0,-8.171C0.839,-8.171 1.631,-8.285 2.376,-8.501L2.376,-0.153C1.61,-0.053 0.818,0 0,0C-9.461,0 -15.415,-6.881 -17.934,-15.686C-18.835,-18.835 -19.286,-22.23 -19.286,-25.606C-19.286,-28.982 -18.835,-32.377 -17.934,-35.525C-15.415,-44.331 -9.461,-51.211 0,-51.211" style="fill:rgb(175,40,0);fill-rule:nonzero;"/>
            </g>
            <g transform="matrix(1,0,0,1,441.496,94.0456)">
                <path d="M0,75.678C0,80.21 -16.745,83.884 -37.401,83.884C-46.245,83.884 -54.37,83.209 -60.772,82.084C-63.974,81.522 -63.459,78.686 -63.459,75.494L-63.459,-8.206L0,-8.206L0,75.678Z" style="fill:rgb(149,34,0);"/>
            </g>
            <g transform="matrix(1,0,0,1,404.095,77.6328)">
                <path d="M0,16.412C20.6,16.412 37.402,12.726 37.402,8.206C37.402,3.686 20.6,0 0,0C-20.6,0 -37.402,3.686 -37.402,8.206C-37.402,12.726 -20.6,16.412 0,16.412" style="fill:rgb(210,48,0);"/>
            </g>
            <g transform="matrix(1,0,0,1,404.095,80.3142)">
                <path d="M0,11.049C18.051,11.049 32.773,8.567 32.773,5.525C32.773,2.482 18.051,0 0,0C-18.051,0 -32.773,2.482 -32.773,5.525C-32.773,8.567 -18.051,11.049 0,11.049" style="fill:rgb(255,101,20);"/>
            </g>
            <g transform="matrix(0,-1,-1,0,404.095,61.2888)">
                <path d="M-27.545,-27.545C-29.066,-21.709 -30.075,-11.552 -30.075,0C-30.075,11.553 -29.066,21.709 -27.545,27.545C-26.023,21.709 -25.014,11.553 -25.014,0C-25.014,-11.552 -26.023,-21.709 -27.545,-27.545" style="fill:rgb(146,10,10);"/>
            </g>
            <g transform="matrix(1,0,0,1,416.329,86.7263)">
                <path d="M0,4.214C-3.843,4.487 -8.059,4.637 -12.483,4.637C-23.931,4.637 -33.996,3.629 -39.779,2.107C-33.996,0.585 -23.931,-0.423 -12.483,-0.423C-10.278,-0.423 -8.125,-0.386 -6.044,-0.314C-3.317,-0.196 -4.37,0.852 -9.019,0.711C-13.675,0.57 -23.059,1.416 -21.729,2.473C-20.399,3.531 -1.253,1.937 0,4.214" style="fill:rgb(224,114,114);"/>
            </g>
            <g transform="matrix(0.0880193,0,0,0.0880193,325.718,7.28626)">
                <path d="M939.467,113.801C939.467,113.801 782.889,346.247 786.925,426.15C790.96,506.053 946.731,543.18 963.68,593.22C980.028,641.483 888.62,726.392 888.62,726.392C888.62,726.392 1077.48,633.172 1084.75,578.692C1092.01,524.213 955.6,474.384 932.203,399.516C907.99,322.034 939.467,113.801 939.467,113.801Z" style="fill:rgb(255,181,181);"/>
            </g>
            <g transform="matrix(-0.0410293,0,0,0.052006,465.679,35.6935)">
                <path d="M939.467,113.801C939.467,113.801 782.889,346.247 786.925,426.15C790.96,506.053 946.731,543.18 963.68,593.22C980.028,641.483 888.62,726.392 888.62,726.392C888.62,726.392 1077.48,633.172 1084.75,578.692C1092.01,524.213 955.6,474.384 932.203,399.516C907.99,322.034 939.467,113.801 939.467,113.801Z" style="fill:rgb(255,181,181);"/>
            </g>
            <g transform="matrix(0.0363675,0,0,0.038416,351.864,45.5652)">
                <path d="M939.467,113.801C939.467,113.801 782.889,346.247 786.925,426.15C790.96,506.053 946.731,543.18 963.68,593.22C980.028,641.483 888.62,726.392 888.62,726.392C888.62,726.392 1077.48,633.172 1084.75,578.692C1092.01,524.213 955.6,474.384 932.203,399.516C907.99,322.034 939.467,113.801 939.467,113.801Z" style="fill:rgb(255,181,181);"/>
            </g>
        </g>
        <g transform="matrix(2.31348,0,0,2.31348,-985.798,1079.61)">
            <path d="M820.847,40.989C820.94,41.115 821.017,41.259 821.084,41.396C822.19,43.657 823.295,45.918 824.4,48.18C824.58,48.549 824.778,48.937 825.13,49.148C825.401,49.311 825.727,49.345 826.042,49.375C828.366,49.6 830.691,49.824 833.016,50.048C833.432,50.088 833.934,50.193 834.066,50.59C834.193,50.97 833.885,51.345 833.601,51.628C831.717,53.512 829.834,55.395 827.95,57.279C827.749,57.479 827.54,57.693 827.465,57.967C827.394,58.228 827.454,58.505 827.515,58.769C827.99,60.836 828.464,62.904 828.94,64.971C829.046,65.433 829.239,66.385 828.853,66.78C828.242,67.407 827.505,66.646 826.842,66.285C825.031,65.299 823.219,64.313 821.408,63.328C820.987,63.099 820.549,62.865 820.071,62.842C819.356,62.809 818.716,63.249 818.127,63.655C816.369,64.864 814.515,65.934 812.59,66.852C812.359,66.962 812.093,67.072 811.855,66.977C811.459,66.818 811.463,66.263 811.536,65.842C811.973,63.328 812.411,60.814 812.848,58.3C812.889,58.067 812.929,57.826 812.865,57.598C812.789,57.331 812.582,57.124 812.383,56.932C810.546,55.15 808.71,53.368 806.873,51.587C806.646,51.366 806.401,51.099 806.434,50.784C806.485,50.305 807.094,50.147 807.574,50.103C809.894,49.894 812.208,49.611 814.51,49.256C815.045,49.173 815.605,49.076 816.028,48.739C816.441,48.411 816.661,47.904 816.866,47.418C817.699,45.448 818.531,43.478 819.364,41.507C819.541,41.087 819.829,40.595 820.283,40.623C820.521,40.637 820.703,40.791 820.847,40.989Z" style="fill:white;fill-rule:nonzero;"/>
            <path d="M830.909,106.349C830.909,110.208 826.969,112.16 823.835,111.278C821.84,110.717 820.118,108.656 820.118,106.348C820.119,100.145 830.908,99.704 830.909,106.349ZM840.243,113.379C834.059,99.656 827.874,85.933 821.689,72.21L821.625,72.215C818.472,72.744 804.468,110.95 802.572,115.216C799.959,121.094 797.359,126.978 794.755,132.86C803.632,129.583 812.282,125.761 820.916,121.991C827.383,119.167 833.822,116.289 840.243,113.379Z" style="fill:white;fill-rule:nonzero;"/>
            <path d="M807.118,143.549C807.118,146.456 804.151,147.925 801.79,147.262C800.288,146.839 798.99,145.287 798.991,143.548C798.991,138.876 807.118,138.544 807.118,143.549ZM850.088,153.213C850.088,158.623 844.565,161.358 840.171,160.123C837.374,159.337 834.96,156.447 834.96,153.211C834.962,144.515 850.087,143.896 850.088,153.213ZM820.306,164.471C834.984,167.058 849.922,168.445 864.783,167.829C863.407,164.775 862.031,161.723 860.655,158.669C854.498,145.007 848.34,131.344 842.183,117.681C835.384,120.758 828.567,123.798 821.717,126.781C811.988,131.016 802.219,135.294 792.13,138.775C789.558,144.582 786.985,150.388 784.391,156.186L784.351,156.276C785.653,156.624 786.954,156.979 788.259,157.319C798.834,160.076 809.502,162.567 820.306,164.471Z" style="fill:white;fill-rule:nonzero;"/>
            <g transform="matrix(0.43225,0,0,0.43225,426.111,-466.661)">
                <path d="M889.141,1655.21C888.969,1659.17 888.841,1663.14 888.956,1667.09C889.155,1673.85 888.057,1749.85 887.011,1749.89C908.709,1751.52 919.395,1751.82 936.457,1748.83C934.449,1748.72 933.941,1696.19 934.707,1655.1L934.812,1655.1C979.624,1654.35 1024.4,1651.8 1068.96,1647.43C1080.42,1646.3 1087.46,1635.47 1082.99,1625.85C1070.73,1599.48 1053.69,1554.05 1050.59,1547.17C1046.05,1537.1 1041.51,1527.02 1036.97,1516.94C947.272,1561.5 851.11,1595.17 751.503,1616.77C749.852,1620.54 748.207,1624.32 746.553,1628.09C742.437,1637.48 749.394,1647.83 760.496,1648.82C803.251,1652.62 846.185,1654.74 889.141,1655.21ZM1013.87,1604.25C1013.87,1622.21 995.538,1631.29 980.954,1627.19C971.67,1624.58 963.656,1614.99 963.659,1604.24C963.663,1575.38 1013.87,1573.33 1013.87,1604.25Z" style="fill:white;fill-rule:nonzero;"/>
            </g>
            <path d="M818.44,182.485C816.444,181.924 814.722,179.863 814.723,177.555C814.724,171.351 825.513,170.911 825.513,177.556C825.513,181.415 821.574,183.366 818.44,182.485ZM779.166,206.812C775.856,205.881 772.998,202.461 772.999,198.631C773.001,188.337 790.903,187.606 790.904,198.633C790.904,205.036 784.367,208.274 779.166,206.812ZM866.827,172.364C850.197,173.22 833.474,171.612 817.045,168.608C805.364,166.473 793.846,163.673 782.423,160.612C772.585,182.666 762.938,204.785 753.264,226.897C794.832,217.567 834.913,203.351 872.386,184.698C870.533,180.586 868.68,176.475 866.827,172.364Z" style="fill:white;fill-rule:nonzero;"/>
        </g>
        <g transform="matrix(1.20871,0,0,1.20871,608.203,1486.46)">
            <path d="M146.328,140.015C133.984,119.278 107.339,113.222 94.493,92.87C93.495,91.289 95.996,89.749 96.989,91.322C109.788,111.6 136.414,117.63 148.782,138.403C149.734,140.003 147.28,141.615 146.328,140.015ZM138.391,97.08C123.55,100.792 106.791,90.085 104.24,75.26C104.373,76.033 88.414,71.214 86.96,70.461C81.345,67.551 77.087,61.699 70.883,60.192C71.194,72.622 80.559,82.467 76.98,95.451C76.686,96.519 76.303,97.609 75.821,98.723C81.068,98.906 86.1,101.931 88.645,106.438C91.19,110.943 91.162,116.772 88.573,121.294C93.802,121.404 99.222,121.563 103.895,123.844C108.567,126.124 112.269,131.163 111.22,136.219C110.849,138.013 110.261,140.51 111.998,141.137C112.632,141.365 113.335,141.184 113.999,141.05C120.484,139.745 153.504,147.067 154.323,154.097C154.101,152.197 152.544,119.907 158.046,122.159C147.349,117.78 136.573,108.399 138.391,97.08Z" style="fill:rgb(64,100,92);fill-rule:nonzero;"/>
            <path d="M195.546,211.515C190.688,210.922 185.982,209.514 181.129,208.943C174.6,208.176 168.401,209.524 162.161,211.371C155.314,213.396 148.505,215.47 141.597,217.283C131.999,219.801 117.45,224.681 108.153,219.23C106.536,218.282 107.943,215.73 109.565,216.682C119.734,222.647 137.255,215.471 147.713,212.635C155.583,210.501 163.352,207.383 171.449,206.21C179.987,204.973 187.738,207.648 196.11,208.67C197.987,208.899 197.415,211.743 195.546,211.515ZM191.538,186.952C179.486,193.333 162.535,195.862 152.904,185.312C145.661,201.844 123.057,208.823 106.842,199.533C107.687,200.017 91.367,210.883 89.577,211.626C82.658,214.496 73.884,213.811 67.895,218.324C80.155,227.79 96.525,226.92 106.481,240.392C107.3,241.5 108.076,242.707 108.803,244.023C112.81,239.351 119.414,237.107 125.635,238.307C131.856,239.506 137.479,244.105 139.966,250.03C143.89,245.317 148.004,240.468 153.623,237.969C159.242,235.47 166.823,236.026 170.954,240.957C172.418,242.705 174.407,245.203 176.282,244.1C176.966,243.698 177.303,242.91 177.66,242.196C181.131,235.221 212.333,210.663 219.736,215.427C217.736,214.139 185.339,190.234 191.538,186.952Z" style="fill:rgb(64,100,92);fill-rule:nonzero;"/>
            <path d="M206.054,100.197C202.152,120.347 197.279,139.941 200.665,160.493C200.967,162.324 198.027,162.407 197.728,160.595C194.287,139.758 199.246,119.954 203.204,99.519C203.559,97.685 206.408,98.369 206.054,100.197ZM214.203,56.422C208.142,69.424 201.867,80.99 186.316,83.293C191.604,85.179 190.752,95.852 189.064,99.335C185.036,107.653 177.938,112.299 171.924,118.565C178.51,121.885 181.652,127.119 181.467,134.522C181.282,141.925 177.571,148.266 173.102,154.037C183.35,149.462 192.063,170.708 194.551,177.489C195.279,179.477 194.741,179.222 195.497,179.99C197.214,181.737 199.293,180.589 200.373,178.978C201.455,177.366 201.138,175.326 201.135,173.426C201.117,162.839 203.512,153.98 210.406,145.652C199.751,138.478 216.2,125.048 222.652,120.213C217.972,121.307 216.311,109.679 216.552,108.052C217.748,99.944 222.47,95.815 227.522,90.587C221.055,90.779 215.978,63.066 214.203,56.422Z" style="fill:rgb(64,100,92);fill-rule:nonzero;"/>
            <path d="M141.345,138.332C165.987,180.979 205.217,214.964 251.26,233.737C253.338,234.584 254.763,231.419 252.681,230.57C207.136,212 168.533,178.432 144.163,136.256C143.056,134.339 140.244,136.426 141.345,138.332Z" style="fill:rgb(64,100,92);fill-rule:nonzero;"/>
            <path d="M194.138,157.66C192.342,177.009 197.377,195.979 208.681,211.808C209.973,213.617 212.794,211.546 211.499,209.732C200.755,194.687 195.89,176.587 197.597,158.187C197.802,155.98 194.344,155.443 194.138,157.66Z" style="fill:rgb(64,100,92);fill-rule:nonzero;"/>
            <path d="M124.155,168.694C132.307,172.681 140.585,176.507 149.396,178.894C158.048,181.237 167.032,182.345 175.879,183.757C177.149,183.96 177.468,182.014 176.2,181.812C167.55,180.431 158.774,179.338 150.301,177.104C141.451,174.771 133.134,170.883 124.966,166.889C123.815,166.326 123.009,168.134 124.155,168.694Z" style="fill:rgb(64,100,92);fill-rule:nonzero;"/>
            <path d="M177.566,183.279C170.223,173.474 159.677,166.59 147.652,163.667C146.404,163.363 146.094,165.312 147.331,165.612C158.844,168.411 168.937,175.087 175.959,184.463C176.719,185.477 178.329,184.298 177.566,183.279Z" style="fill:rgb(64,100,92);fill-rule:nonzero;"/>
            <path d="M145.158,183.488C155.48,185.229 165.953,185.523 176.383,184.368C177.663,184.226 177.465,182.268 176.185,182.41C165.921,183.547 155.637,183.256 145.479,181.542C144.21,181.329 143.893,183.275 145.158,183.488Z" style="fill:rgb(64,100,92);fill-rule:nonzero;"/>
            <path d="M138.884,157.433C134.406,161.322 134.976,169.244 140.128,171.96C142.673,173.302 145.781,173.214 148.596,172.519C150.143,172.137 151.711,171.542 152.788,170.377C154.268,168.775 154.528,166.438 154.525,164.28C154.522,161.923 154.229,159.407 152.705,157.602C151.35,155.996 149.204,155.208 147.087,155.008C144.172,154.733 141.091,155.515 138.884,157.433Z" style="fill:rgb(233,0,8);fill-rule:nonzero;"/>
            <path d="M133.926,176.044C130.015,179.44 130.513,186.358 135.012,188.73C137.234,189.901 139.949,189.825 142.406,189.218C143.757,188.884 145.126,188.365 146.066,187.348C147.359,185.949 147.586,183.908 147.584,182.024C147.581,179.965 147.325,177.769 145.995,176.192C144.811,174.79 142.937,174.102 141.089,173.927C138.543,173.687 135.852,174.37 133.926,176.044Z" style="fill:rgb(233,0,8);fill-rule:nonzero;"/>
            <path d="M128.977,159.56C128.143,158.648 127.061,157.965 125.722,157.643C119.723,156.198 115.321,161.675 115.465,167.112C115.506,168.695 115.711,170.356 116.639,171.644C117.339,172.615 118.392,173.284 119.491,173.768C123.297,175.442 127.776,174.573 129.929,170.845C131.805,167.601 131.619,162.441 128.977,159.56Z" style="fill:rgb(233,0,8);fill-rule:nonzero;"/>
        </g>
        <g transform="matrix(1.8136,1.51211,-1.51211,1.8136,546.316,-339.599)">
            <path d="M690.086,577.605C689.466,577.851 688.827,578.013 688.172,578.05C687.887,578.067 687.594,578.062 687.299,578.048C681.992,582.104 676.762,586.256 671.606,590.502C681.929,594.715 694.603,593.344 703.617,586.784C699.902,582.697 695.318,579.563 690.086,577.605Z" style="fill:rgb(201,167,99);fill-rule:nonzero;"/>
            <path d="M664.871,565.635C669.404,564.803 671.372,561.545 674.046,558.215C675.001,557.025 676.021,555.888 677.089,554.797C677.636,554.239 678.196,553.692 678.767,553.157C678.952,552.983 679.568,552.596 679.637,552.363C679.767,551.925 678.437,551.581 678.105,551.408C677.241,550.96 676.377,550.51 675.515,550.059C673.829,549.177 672.144,548.292 670.457,547.411C667.681,545.961 664.904,544.512 662.127,543.063C659.118,546.275 656.931,550.37 655.957,555.247C655.246,558.809 654.991,562.523 655.255,566.17C658.554,566.278 661.813,566.195 664.871,565.635Z" style="fill:rgb(201,167,99);fill-rule:nonzero;"/>
            <path d="M696.683,572.349C695.558,573.441 694.262,574.822 692.83,575.952C697.742,578.109 702.048,581.217 705.628,585.179C706.449,584.461 707.236,583.7 707.973,582.884C711.018,579.512 713.096,575.538 714.24,571.344C710.987,568.519 707.715,565.715 704.422,562.937C702.164,566.326 699.617,569.501 696.683,572.349Z" style="fill:rgb(201,167,99);fill-rule:nonzero;"/>
            <path d="M690.06,555.497C688.577,554.672 687.031,553.947 685.401,553.461C684.654,553.238 683.81,552.922 683.031,553.137C682.247,553.353 681.664,553.985 681.09,554.522C680.245,555.316 679.425,556.138 678.631,556.983C677.094,558.622 675.654,560.349 674.288,562.132C673.608,563.02 672.897,563.888 672.105,564.679C671.711,565.073 671.297,565.449 670.859,565.796C670.563,566.031 669.825,566.324 669.629,566.565C668.763,567.633 672.276,569.408 672.961,569.839C674.334,570.704 675.76,571.483 677.226,572.178C680.06,573.521 683.06,574.577 686.147,575.151C687.342,575.373 688.528,575.177 689.659,574.736C691.601,573.98 693.38,572.501 694.759,571.171C697.284,568.736 699.404,565.89 701.352,562.983C701.59,562.627 701.826,562.269 702.06,561.909C700.943,561.592 699.863,561.163 698.817,560.662C695.752,559.195 693.022,557.144 690.06,555.497Z" style="fill:rgb(201,167,99);fill-rule:nonzero;"/>
            <path d="M665.655,570.041C665.839,569.763 667.063,568.375 666.911,568.078C666.673,567.615 665.541,568.159 665.203,568.218C664.192,568.393 663.167,568.478 662.143,568.513C660.133,568.582 658.124,568.452 656.116,568.386C655.904,568.379 655.692,568.372 655.48,568.365C655.995,572.257 657.129,576.018 658.973,579.37C660.033,577.987 661.085,576.597 662.102,575.183C663.318,573.49 664.502,571.776 665.655,570.041Z" style="fill:rgb(201,167,99);fill-rule:nonzero;"/>
            <path d="M677.206,574.729C674.163,573.488 671.313,571.975 668.731,570.033C666.122,574.04 663.339,577.918 660.417,581.691C662.563,584.775 665.41,587.401 669.04,589.307C673.937,585.257 678.902,581.292 683.933,577.409C681.572,576.692 679.188,575.538 677.206,574.729Z" style="fill:rgb(201,167,99);fill-rule:nonzero;"/>
            <path d="M676.067,547.435C677.045,547.945 678.023,548.456 679.001,548.966C680.976,549.997 681.261,550.538 683.332,549.933C687.399,548.744 691.655,543.075 694.508,540.055C695.479,539.027 696.426,537.979 697.359,536.918C686.696,532.927 672.464,534.169 664.091,541.183C665.639,541.991 667.186,542.798 668.733,543.606C671.178,544.882 673.622,546.159 676.067,547.435Z" style="fill:rgb(201,167,99);fill-rule:nonzero;"/>
            <path d="M706.51,561.335C709.311,563.702 712.095,566.089 714.868,568.488C715.534,564.545 715.404,560.488 714.491,556.609C712.634,557.714 710.777,558.82 708.92,559.925C708.081,560.425 707.298,560.933 706.51,561.335Z" style="fill:rgb(201,167,99);fill-rule:nonzero;"/>
            <path d="M694.313,543.959C692.201,546.093 690.013,548.152 687.755,550.132C687.433,550.415 687.073,550.763 686.688,551.125C691.149,552.533 694.907,555.346 699.053,557.65C700.082,558.223 701.109,558.873 702.26,559.174C705.087,559.915 707.326,557.878 709.588,556.532C710.979,555.704 712.371,554.875 713.762,554.047C711.972,548.674 708.621,543.795 703.734,540.266C702.537,539.401 701.227,538.641 699.84,537.974C698.061,540.024 696.227,542.027 694.313,543.959Z" style="fill:rgb(201,167,99);fill-rule:nonzero;"/>
            <path d="M689.43,530.851C687.859,530.427 685.552,531.221 684.181,530.656C682.921,530.136 682.882,526.973 682.147,525.619C681.867,525.103 681.517,524.605 681.025,524.284C680.354,523.845 678.712,523.815 678.291,524.692C678.141,525.007 678.26,525.377 678.376,525.706C678.678,526.556 679.276,528.072 679.357,529.316C679.337,529.609 679.318,529.901 679.298,530.193C679.267,530.327 679.237,530.462 679.18,530.577C678.664,531.621 677.067,531.428 675.902,531.606C673.393,531.989 671.321,533.797 670.665,536.248C670.473,536.967 670.358,537.667 670.403,538.237C670.403,538.237 685.669,536.203 693.27,536.428C693.27,536.428 693.437,531.933 689.43,530.851Z" style="fill:rgb(201,167,99);fill-rule:nonzero;"/>
        </g>
    </g>
</svg>
